# xmcd
#
# Track frame offsets: 
#        150
#        17084
#        32690
#        57512
#        72302
#        87860
#        99450
#        115952
#        132486
#        156972
#        176578
#        203608
#        222526
#        240436
#        256250
#        263792
#        288150
#        305404
#        322674
#
# Disc length: 4534 seconds
#
# Revision: 0
# Processed by: cddbd v1.5.2PL0 Copyright (c) Steve Scherf et al.
# Submitted via: ExactAudioCopy v0.95b3
#
DISCID=0a11b413
DTITLE=The Rolling Stones - That Demon Life- Sticky Fingers Outtakes  
DTITLE=FLAC
DYEAR=1900
DGENRE=
TTITLE0=Rolling Stones - Brown Sugar (Early-Vocal)
TTITLE1=Rolling Stones - Sway (No-Overdubs)
TTITLE2=Rolling Stones - Wild Horses (Acoustic-Mix, No-Overdubs)
TTITLE3=Rolling Stones - Good Time Woman (A-K-A Tumblin' Dice)
TTITLE4=Rolling Stones - Silver Train (Early-Version)
TTITLE5=Rolling Stones - You Gotta Move (Mono-Mix)
TTITLE6=Rolling Stones - Bitch (Mono-Mix)
TTITLE7=Rolling Stones - I Got The Blues (Mono-Monitor-Mix)
TTITLE8=Rolling Stones - Sister Morphine (Basic-Stereo-Mix)
TTITLE9=Rolling Stones - All Down The Line (Early-Rehearsal)
TTITLE10=Rolling Stones - Travellin' Man (Outtake)
TTITLE11=Rolling Stones - Potted Shrimp (Outtake)
TTITLE12=Rolling Stones - Alladin Story (Outtake)
TTITLE13=Rolling Stones - Leather Jacket (Outtake)
TTITLE14=Rolling Stones - Keith Richards and Mick Taylor - Wild Horses (
TTITLE14=Run Through)
TTITLE15=Rolling Stones - Wild Horses (Alternate-Version)
TTITLE16=Rolling Stones - Brown Sugar (Alternate-Guitar)
TTITLE17=Rolling Stones - Brown Sugar (Alternate-Mix)
TTITLE18=Rolling Stones - Brown Sugar (Mono-Single-Mix)
EXTD=
EXTT0=
EXTT1=
EXTT2=
EXTT3=
EXTT4=
EXTT5=
EXTT6=
EXTT7=
EXTT8=
EXTT9=
EXTT10=
EXTT11=
EXTT12=
EXTT13=
EXTT14=
EXTT15=
EXTT16=
EXTT17=
EXTT18=
PLAYORDER=
